{
  "accessors": [
    {
      "bufferView": 2,
      "componentType": 5126,
      "count": 960,
      "max": [
        86.99838256835938,
        425.2191467285156,
        85.97174072265625
      ],
      "min": [
        -88.86502075195313,
        184.0950927734375,
        -89.89166259765625
      ],
      "type": "VEC3"
    },
    {
      "bufferView": 2,
      "byteOffset": 11520,
      "componentType": 5126,
      "count": 960,
      "max": [
        0.9801215529441833,
        0.9915555119514465,
        0.9800950884819031
      ],
      "min": [
        -0.9800550937652588,
        -0.9275133609771729,
        -0.9800816774368286
      ],
      "type": "VEC3"
    },
    {
      "bufferView": 1,
      "componentType": 5126,
      "count": 960,
      "max": [
        0.23072732985019684,
        0.4499981701374054
      ],
      "min": [
        0.0010763108730316162,
        0.33115413784980774
      ],
      "type": "VEC2"
    },
    {
      "bufferView": 0,
      "componentType": 5125,
      "count": 1440,
      "type": "SCALAR"
    },
    {
      "bufferView": 2,
      "byteOffset": 23040,
      "componentType": 5126,
      "count": 474,
      "max": [
        66.76146697998047,
        69.2842788696289,
        52.87757110595703
      ],
      "min": [
        -52.540706634521484,
        -53.34023666381836,
        -72.44384765625
      ],
      "type": "VEC3"
    },
    {
      "bufferView": 2,
      "byteOffset": 28728,
      "componentType": 5126,
      "count": 474,
      "max": [
        0.9626683592796326,
        0.9796179533004761,
        0.9483432769775391
      ],
      "min": [
        -0.9969515204429626,
        -0.9998586773872375,
        -0.97479248046875
      ],
      "type": "VEC3"
    },
    {
      "bufferView": 1,
      "byteOffset": 7680,
      "componentType": 5126,
      "count": 474,
      "max": [
        0.22402238845825195,
        0.3469163179397583
      ],
      "min": [
        0.04890516400337219,
        0.007459014654159546
      ],
      "type": "VEC2"
    },
    {
      "bufferView": 0,
      "byteOffset": 5760,
      "componentType": 5125,
      "count": 474,
      "type": "SCALAR"
    },
    {
      "bufferView": 2,
      "byteOffset": 34416,
      "componentType": 5126,
      "count": 4784,
      "max": [
        73.23619842529297,
        192.66522216796875,
        16.076786041259766
      ],
      "min": [
        -58.2740364074707,
        -60.38286209106445,
        -32.35189437866211
      ],
      "type": "VEC3"
    },
    {
      "bufferView": 2,
      "byteOffset": 91824,
      "componentType": 5126,
      "count": 4784,
      "max": [
        0.9991912841796875,
        0.9999677538871765,
        0.9993790984153748
      ],
      "min": [
        -0.9992082715034485,
        -0.999955952167511,
        -0.9993791580200195
      ],
      "type": "VEC3"
    },
    {
      "bufferView": 1,
      "byteOffset": 11472,
      "componentType": 5126,
      "count": 4784,
      "max": [
        0.14231756329536438,
        0.5037951469421387
      ],
      "min": [
        0.08621066808700562,
        0.44824934005737305
      ],
      "type": "VEC2"
    },
    {
      "bufferView": 0,
      "byteOffset": 7656,
      "componentType": 5125,
      "count": 7152,
      "type": "SCALAR"
    }
  ],
  "asset": {
    "extras": {
      "author": "pedrobax (https://sketchfab.com/pedrobax)",
      "license": "CC-BY-4.0 (http://creativecommons.org/licenses/by/4.0/)",
      "source": "https://sketchfab.com/3d-models/rock-baloon-68bb88f9702e4278a68bbf5190bb8c3e",
      "title": "Rock Baloon"
    },
    "generator": "Sketchfab-15.29.0",
    "version": "2.0"
  },
  "bufferViews": [
    {
      "buffer": 0,
      "byteLength": 36264,
      "name": "floatBufferViews",
      "target": 34963
    },
    {
      "buffer": 0,
      "byteLength": 49744,
      "byteOffset": 36264,
      "byteStride": 8,
      "name": "floatBufferViews",
      "target": 34962
    },
    {
      "buffer": 0,
      "byteLength": 149232,
      "byteOffset": 86008,
      "byteStride": 12,
      "name": "floatBufferViews",
      "target": 34962
    }
  ],
  "buffers": [
    {
      "byteLength": 235240,
      "uri": "scene.bin"
    }
  ],
  "images": [
    {
      "uri": "textures/M_10Rubber_baseColor.png"
    },
    {
      "uri": "textures/M_10Rock_baseColor.png"
    },
    {
      "uri": "textures/M_10Organic_baseColor.png"
    }
  ],
  "materials": [
    {
      "doubleSided": true,
      "name": "M_10Rubber",
      "pbrMetallicRoughness": {
        "baseColorTexture": {
          "index": 0
        },
        "metallicFactor": 0.0,
        "roughnessFactor": 0.7835828792790119
      }
    },
    {
      "doubleSided": true,
      "name": "M_10Rock",
      "pbrMetallicRoughness": {
        "baseColorTexture": {
          "index": 1
        },
        "metallicFactor": 0.0,
        "roughnessFactor": 0.8211145618000169
      }
    },
    {
      "doubleSided": true,
      "name": "M_10Organic",
      "pbrMetallicRoughness": {
        "baseColorTexture": {
          "index": 2
        },
        "metallicFactor": 0.0,
        "roughnessFactor": 0.84
      }
    }
  ],
  "meshes": [
    {
      "name": "RockWithBaloon_M_10Rubber_0",
      "primitives": [
        {
          "attributes": {
            "NORMAL": 1,
            "POSITION": 0,
            "TEXCOORD_0": 2
          },
          "indices": 3,
          "material": 0,
          "mode": 4
        }
      ]
    },
    {
      "name": "RockWithBaloon_M_10Rock_0",
      "primitives": [
        {
          "attributes": {
            "NORMAL": 5,
            "POSITION": 4,
            "TEXCOORD_0": 6
          },
          "indices": 7,
          "material": 1,
          "mode": 4
        }
      ]
    },
    {
      "name": "RockWithBaloon_M_10Organic_0",
      "primitives": [
        {
          "attributes": {
            "NORMAL": 9,
            "POSITION": 8,
            "TEXCOORD_0": 10
          },
          "indices": 11,
          "material": 2,
          "mode": 4
        }
      ]
    }
  ],
  "nodes": [
    {
      "children": [
        1
      ],
      "matrix": [
        1.0,
        0.0,
        0.0,
        0.0,
        0.0,
        2.220446049250313e-16,
        -1.0,
        0.0,
        0.0,
        1.0,
        2.220446049250313e-16,
        0.0,
        0.0,
        0.0,
        0.0,
        1.0
      ],
      "name": "Sketchfab_model"
    },
    {
      "children": [
        2
      ],
      "matrix": [
        0.009999999776482582,
        0.0,
        0.0,
        0.0,
        0.0,
        0.0,
        0.009999999776482582,
        0.0,
        0.0,
        -0.009999999776482582,
        0.0,
        0.0,
        0.0,
        0.0,
        0.0,
        1.0
      ],
      "name": "RockBaloon.fbx"
    },
    {
      "children": [
        3
      ],
      "name": "RootNode"
    },
    {
      "children": [
        4,
        5,
        6
      ],
      "matrix": [
        1.0,
        -5.684341886080802e-14,
        0.0,
        0.0,
        5.684341886080802e-14,
        1.0,
        0.0,
        0.0,
        0.0,
        0.0,
        1.0,
        0.0,
        5405.0263671875,
        82.80067443847656,
        1.9599676132202148,
        1.0
      ],
      "name": "RockWithBaloon"
    },
    {
      "mesh": 0,
      "name": "RockWithBaloon_M_10Rubber_0"
    },
    {
      "mesh": 1,
      "name": "RockWithBaloon_M_10Rock_0"
    },
    {
      "mesh": 2,
      "name": "RockWithBaloon_M_10Organic_0"
    }
  ],
  "samplers": [
    {
      "magFilter": 9729,
      "minFilter": 9987,
      "wrapS": 10497,
      "wrapT": 10497
    }
  ],
  "scene": 0,
  "scenes": [
    {
      "name": "Sketchfab_Scene",
      "nodes": [
        0
      ]
    }
  ],
  "textures": [
    {
      "sampler": 0,
      "source": 0
    },
    {
      "sampler": 0,
      "source": 1
    },
    {
      "sampler": 0,
      "source": 2
    }
  ]
}
